<?xml version="1.0" encoding="utf-8"?>
<!-- Generator: Adobe Illustrator 25.0.0, SVG Export Plug-In . SVG Version: 6.00 Build 0)  -->
<svg version="1.1"
	 id="Layer_1" xmlns:cc="http://creativecommons.org/ns#" xmlns:dc="http://purl.org/dc/elements/1.1/" xmlns:inkscape="http://www.inkscape.org/namespaces/inkscape" xmlns:rdf="http://www.w3.org/1999/02/22-rdf-syntax-ns#" xmlns:sodipodi="http://sodipodi.sourceforge.net/DTD/sodipodi-0.dtd" xmlns:svg="http://www.w3.org/2000/svg"
	 xmlns="http://www.w3.org/2000/svg" xmlns:xlink="http://www.w3.org/1999/xlink" x="0px" y="0px" width="73px" height="73px"
	 viewBox="0 0 73 73" style="enable-background:new 0 0 73 73;" xml:space="preserve">
<g>
	
		<sodipodi:namedview  bordercolor="#666666" borderopacity="1" gridtolerance="10" guidetolerance="10" id="namedview5" inkscape:current-layer="Layer_1" inkscape:cx="32" inkscape:cy="32" inkscape:pageopacity="0" inkscape:pageshadow="2" inkscape:window-height="554" inkscape:window-maximized="1" inkscape:window-width="1024" inkscape:window-x="-8" inkscape:window-y="-8" inkscape:zoom="5.984375" objecttolerance="10" pagecolor="#ffffff" showgrid="false">
		</sodipodi:namedview>
	<path id="path3" inkscape:connector-curvature="0" d="M36.5,0C16.4,0,0,16.4,0,36.5S16.4,73,36.5,73S73,56.6,73,36.5S56.6,0,36.5,0
		z M36.5,66.2c-16.4,0-29.7-13.3-29.7-29.7c0-3.5,0.6-6.7,1.7-9.8l11.6,5.1c-0.3,1.5-0.5,3.2-0.5,4.8c0,14.6,10.9,18.7,17.8,18.7
		c4.1,0,7.5-1.3,10.3-3.2c0.5-0.4,1-0.8,1.5-1.2l-5.3-6.5c-0.2,0.2-0.3,0.4-0.5,0.5c-2.1,2-4.4,2-4.8,2c-5.5,0-7.9-5.8-7.9-10.6
		l32,14.2h0.1C57.5,59.9,47.7,66.2,36.5,66.2z M65.1,44.1l-33-14.8c1.2-2.2,3.1-3.8,5.9-3.8c1.6,0,2.9,0.5,4,1.2
		c0.5,0.3,0.8,0.6,1.1,0.9l5.9-6.1c-4-3.5-8.5-4.1-11.5-4.1c-7,0-11.9,3-14.8,7.6l-11-4.9c5.3-8,14.4-13.4,24.8-13.4
		c16.4,0,29.7,13.3,29.7,29.7C66.2,39.1,65.8,41.7,65.1,44.1L65.1,44.1L65.1,44.1z"/>
</g>
</svg>
